<?xml version="1.0" encoding="UTF-8" standalone="no"?>
<svg
   version="1.1"
   width="1024"
   height="1024"
   id="svg18"
   xmlns="http://www.w3.org/2000/svg"
   xmlns:svg="http://www.w3.org/2000/svg">
  <path
     d="M0 0 C17.85008548 12.23184296 35.20949798 25.11161443 52.38574219 38.26855469 C58.62404923 43.03306457 64.94931002 47.65631042 71.33520508 52.22021484 C77.27754821 56.48492865 83.09817843 60.8972079 88.90234375 65.34765625 C95.17234142 70.15378849 101.47044705 74.88915756 107.92260742 79.44750977 C120.59606359 88.40687491 132.98392488 97.75393373 145.30371094 107.19116211 C151.13772987 111.65186808 157.03131506 116.02053225 162.96484375 120.34765625 C170.28603196 125.69848233 177.36193753 131.28912469 184.359375 137.0546875 C188.07420113 140.11300184 191.85617269 143.07888676 195.65234375 146.03515625 C197.82231714 147.73935711 199.98761645 149.44927902 202.15234375 151.16015625 C202.99152344 151.81757813 203.83070313 152.475 204.6953125 153.15234375 C205.75685547 154.02246094 205.75685547 154.02246094 206.83984375 154.91015625 C207.42121094 155.379375 208.00257813 155.84859375 208.6015625 156.33203125 C212.8181 161.30265984 213.61276094 166.78351038 213.5859375 173.10546875 C213.59117935 173.83837128 213.5964212 174.5712738 213.6018219 175.3263855 C213.60820353 176.86422465 213.60695551 178.40211287 213.59838867 179.93994141 C213.58983935 182.2863633 213.61875172 184.63037798 213.65039062 186.9765625 C213.65200204 188.47786386 213.65142624 189.9791695 213.6484375 191.48046875 C213.65967148 192.17641144 213.67090546 192.87235413 213.68247986 193.58938599 C213.63216159 197.11739076 213.20949888 199.06970415 211.30883789 202.07763672 C206.45730345 206.76274809 199.1526418 205.45807856 192.8034668 205.51025391 C191.34008778 205.52671632 189.87678588 205.55387672 188.41381836 205.59228516 C176.04271789 205.91477786 167.9936092 203.63618734 158.21484375 195.72265625 C157.10576745 194.84173086 155.99498155 193.96295504 154.8828125 193.0859375 C154.28903809 192.61623535 153.69526367 192.1465332 153.08349609 191.66259766 C149.45306279 188.83811136 145.73640318 186.13003264 142.02734375 183.41015625 C141.22111572 182.8179126 140.4148877 182.22566895 139.58422852 181.61547852 C137.93114052 180.40142822 136.27773653 179.18780807 134.62402344 177.97460938 C130.62930638 175.04209879 126.64108287 172.10078964 122.65234375 169.16015625 C121.06904316 167.99344514 119.48570979 166.82677853 117.90234375 165.66015625 C102.06901042 153.99348958 86.23567708 142.32682292 70.40234375 130.66015625 C69.61835205 130.08249512 68.83436035 129.50483398 68.02661133 128.90966797 C66.44565392 127.74471776 64.86476183 126.57967891 63.28393555 125.41455078 C59.28978547 122.47088645 55.29445945 119.52884279 51.296875 116.58984375 C43.89214323 111.14378296 36.49843186 105.68514369 29.15234375 100.16015625 C17.30497097 91.2586167 5.45069314 82.36371353 -6.72265625 73.91015625 C-7.37041016 73.45632568 -8.01816406 73.00249512 -8.68554688 72.53491211 C-14.42780589 68.58977313 -18.79505413 66.35084125 -25.84765625 67.16015625 C-32.82782592 69.98925742 -38.83084329 74.05231071 -44.78515625 78.59765625 C-46.44643609 79.84398795 -48.10789976 81.09007466 -49.76953125 82.3359375 C-50.60935547 82.96967285 -51.44917969 83.6034082 -52.31445312 84.25634766 C-56.36348086 87.29936214 -60.45136393 90.28906791 -64.53515625 93.28515625 C-72.35632087 99.04235804 -80.1358671 104.85327093 -87.89599609 110.69238281 C-91.21057653 113.1851596 -94.5293537 115.67233775 -97.84765625 118.16015625 C-99.18100911 119.16013022 -100.51434246 120.1601302 -101.84765625 121.16015625 C-125.84765625 139.16015625 -125.84765625 139.16015625 -127.84643555 140.65917969 C-129.18391597 141.6623308 -130.52131794 142.66558653 -131.85864258 143.66894531 C-135.12790017 146.12158392 -138.39836024 148.57257687 -141.671875 151.01953125 C-150.26749847 157.44878694 -158.81706645 163.93646382 -167.3503418 170.44824219 C-172.72790036 174.55039516 -178.12271502 178.6263233 -183.54296875 182.671875 C-186.38464223 184.8026667 -189.20618329 186.95932662 -192.02734375 189.1171875 C-192.96320313 189.83261719 -193.8990625 190.54804688 -194.86328125 191.28515625 C-196.73169527 192.71454402 -198.59893493 194.14546851 -200.46484375 195.578125 C-212.99232429 205.16015625 -212.99232429 205.16015625 -217.53515625 205.16015625 C-220.84765625 204.16015625 -220.84765625 204.16015625 -222.72265625 202.28515625 C-224.90217976 198.16827852 -224.97928837 194.87245145 -224.99482727 190.27201843 C-224.99850396 189.56723399 -225.00218065 188.86244956 -225.00596875 188.13630801 C-225.0170036 185.76884318 -225.02084906 183.40142225 -225.0246582 181.03393555 C-225.03092294 179.33881491 -225.03756975 177.64369564 -225.04457092 175.94857788 C-225.06197802 171.33900032 -225.07253163 166.72943313 -225.08077645 162.11983085 C-225.08592665 159.24044156 -225.09200233 156.36105549 -225.09828758 153.48166847 C-225.11733784 144.47416915 -225.13157 135.46667801 -225.13989955 126.45916241 C-225.14967596 116.05859329 -225.17600671 105.65823677 -225.21640044 95.25774258 C-225.24654645 87.22028569 -225.26136693 79.1828898 -225.26468056 71.14537746 C-225.26703253 66.34406753 -225.27601214 61.54298478 -225.30114174 56.74173546 C-225.32440137 52.22483669 -225.32866424 47.70831502 -225.31838036 43.19137192 C-225.31788439 41.5345554 -225.32422272 39.87772045 -225.3379364 38.22096062 C-225.35562921 35.95660335 -225.34856344 33.6936033 -225.33540344 31.429245 C-225.3377918 30.16291072 -225.34018015 28.89657644 -225.34264088 27.5918684 C-224.63226552 22.66685942 -222.44231332 19.5412546 -218.71655273 16.31445312 C-214.47389277 14.60742425 -210.48000531 14.69240139 -205.9453125 14.69140625 C-204.9899913 14.68379272 -204.0346701 14.6761792 -203.05039978 14.66833496 C-201.03403329 14.65755044 -199.017611 14.65467415 -197.0012207 14.65917969 C-193.92369055 14.66015197 -190.84865478 14.61851229 -187.77148438 14.57421875 C-185.80859893 14.56901133 -183.84570485 14.56632356 -181.8828125 14.56640625 C-180.9670192 14.55001099 -180.05122589 14.53361572 -179.10768127 14.51672363 C-174.85841043 14.56247195 -171.7822589 14.73395915 -168.34545898 17.38476562 C-164.31179193 21.86670552 -163.60028809 25.56627472 -163.52880859 31.51098633 C-163.5089389 32.77191605 -163.48906921 34.03284576 -163.46859741 35.33198547 C-163.45672288 36.69788437 -163.44505992 38.06378512 -163.43359375 39.4296875 C-163.41487174 40.83502832 -163.39529756 42.24035803 -163.37490845 43.64567566 C-163.32369008 47.33301219 -163.28400959 51.02038512 -163.24676514 54.70788574 C-163.20666066 58.47526987 -163.15559781 62.24250391 -163.10546875 66.00976562 C-163.0088315 73.39312601 -162.92438806 80.77655931 -162.84765625 88.16015625 C-162.08509521 87.5151416 -161.32253418 86.87012695 -160.53686523 86.20556641 C-154.47193103 81.0985194 -148.34574025 76.17261502 -141.91015625 71.53515625 C-134.88109511 66.41611182 -127.93542104 61.20146057 -121.03515625 55.91015625 C-114.7871536 51.12671484 -108.51122898 46.41013605 -102.0793457 41.87695312 C-97.23855163 38.46142137 -92.48055921 34.93996413 -87.72265625 31.41015625 C-79.48748968 25.31347649 -71.13390103 19.40357168 -62.71875 13.55859375 C-59.5253922 11.33916884 -56.35177566 9.09579882 -53.1953125 6.82421875 C-33.95546133 -7.0025214 -21.38007899 -14.12344629 0 0 Z "
     fill="#9BC47C"
     transform="translate(533.84765625,220.83984375)"
     id="path2" />
  <path
     d="M0 0 C0.75980164 -0.00902847 1.51960327 -0.01805695 2.3024292 -0.02735901 C3.91300509 -0.04188032 5.52364022 -0.05075292 7.13427734 -0.05444336 C9.58664116 -0.06629637 12.03645224 -0.11541919 14.48828125 -0.16601562 C16.05467525 -0.17548518 17.62108468 -0.18271767 19.1875 -0.1875 C19.91584045 -0.20703232 20.64418091 -0.22656464 21.39459229 -0.24668884 C25.30546007 -0.21243029 27.37255079 0.37946467 30.69604492 2.4909668 C33.61674199 5.64941059 34.76806242 7.95319035 36.14453125 12.01171875 C36.38188492 12.69147766 36.61923859 13.37123657 36.86378479 14.07159424 C37.40422017 15.62313852 37.93650906 17.17753558 38.46221924 18.73413086 C39.4495316 21.63608633 40.47159531 24.524291 41.49951172 27.41210938 C43.95238616 34.30798104 46.37538347 41.21415166 48.796875 48.12109375 C49.62549922 50.48052208 50.45427443 52.83989738 51.28320312 55.19921875 C54.32698107 63.86526721 57.36992926 72.53159404 60.39526367 81.20410156 C60.70927628 82.10364563 61.02328888 83.0031897 61.34681702 83.92999268 C61.91710694 85.56442403 62.48663743 87.19912071 63.05516052 88.83416748 C65.69345404 96.39516932 68.50650133 103.88883168 71.359375 111.37109375 C73.69288114 107.87083454 74.83617836 104.29416613 76.125 100.33203125 C76.39495285 99.51514832 76.6649057 98.69826538 76.94303894 97.85662842 C77.52851464 96.08393378 78.11202922 94.3105905 78.69381714 92.53668213 C80.25603747 87.77508912 81.83378607 83.01864221 83.41015625 78.26171875 C83.73512589 77.27998688 84.06009552 76.298255 84.39491272 75.28677368 C87.80339489 65.0030863 91.2911941 54.74698318 94.796875 44.49609375 C95.21737122 43.26448517 95.21737122 43.26448517 95.6463623 42.00799561 C97.89359687 35.42690317 97.89359687 35.42690317 98.91116333 32.49484253 C100.36188063 28.31416347 101.76564322 24.12417578 103.11376953 19.90917969 C103.41122574 19.00368378 103.70868195 18.09818787 104.01515198 17.16525269 C104.58474841 15.43130986 105.13972194 13.69246686 105.67710876 11.94827271 C107.52577603 6.40485855 109.27028826 3.40689447 114.359375 0.37109375 C117.29281055 -0.08412649 119.61836697 -0.26561643 122.53125 -0.1875 C123.29487854 -0.18516861 124.05850708 -0.18283722 124.84527588 -0.18043518 C126.44888585 -0.17074064 128.0524638 -0.14905277 129.65576172 -0.1159668 C132.11607202 -0.06627098 134.57438774 -0.05446647 137.03515625 -0.04882812 C138.59637555 -0.03475182 140.15757746 -0.0185509 141.71875 0 C142.82340607 0.00804405 142.82340607 0.00804405 143.95037842 0.01625061 C149.12599926 0.13771801 149.12599926 0.13771801 151.359375 2.37109375 C151.86684679 7.79616883 150.70037098 11.98717119 148.640625 16.92578125 C148.35129593 17.64754044 148.06196686 18.36929962 147.76387024 19.1129303 C146.80642875 21.49513573 145.83270972 23.87034328 144.859375 26.24609375 C144.17917818 27.93245826 143.50041303 29.61940087 142.82299805 31.30688477 C141.76075631 33.95237054 140.69757769 36.59744088 139.63005066 39.24079895 C136.07753027 48.03878855 132.62079257 56.87307923 129.18075562 65.71554565 C128.16969646 68.31419307 127.15695805 70.91218048 126.14379883 73.51000977 C122.34271386 83.25922638 118.55755579 93.01452643 114.78491211 102.77478027 C113.11220731 107.10096039 111.43641485 111.4259453 109.76074219 115.75097656 C108.81461917 118.19507275 107.86999363 120.63974906 106.92675781 123.08496094 C76.92713452 200.78990759 76.92713452 200.78990759 47.359375 214.37109375 C36.94677216 218.28030285 27.1621313 219.56276786 16.109375 219.62109375 C15.11679687 219.64171875 14.12421875 219.66234375 13.1015625 219.68359375 C12.15023437 219.68875 11.19890625 219.69390625 10.21875 219.69921875 C9.35733398 219.70856445 8.49591797 219.71791016 7.60839844 219.72753906 C5.359375 219.37109375 5.359375 219.37109375 3.58276367 218.18823242 C0.95835406 214.29011214 1.89268771 208.96823715 1.921875 204.43359375 C1.90189453 203.33595703 1.88191406 202.23832031 1.86132812 201.10742188 C1.86197266 200.05103516 1.86261719 198.99464844 1.86328125 197.90625 C1.86050171 196.45810913 1.86050171 196.45810913 1.85766602 194.98071289 C2.50568713 191.61005707 3.6676787 190.44635745 6.359375 188.37109375 C9.24611428 187.75333154 11.94293872 187.32175341 14.859375 186.99609375 C26.10769161 185.39887346 35.31945158 182.02712108 42.66796875 172.9296875 C47.32333566 165.8875043 50.18495723 158.89885067 49.359375 150.37109375 C48.61882517 147.57275532 47.53669817 144.97703025 46.38671875 142.32421875 C46.07259537 141.56832458 45.75847198 140.81243042 45.43482971 140.03363037 C44.40199367 137.5570401 43.34953388 135.08931553 42.296875 132.62109375 C41.56375528 130.87296091 40.83200558 129.12425294 40.1015625 127.375 C38.59844561 123.78131292 37.08763128 120.19102267 35.56982422 116.60351562 C33.53736851 111.79814582 31.52365737 106.98521361 29.51953125 102.16796875 C29.21525208 101.43665237 28.9109729 100.705336 28.59747314 99.95185852 C27.98848074 98.48800311 27.37955292 97.02412083 26.77069092 95.56021118 C25.85341776 93.35678357 24.93410043 91.15421959 24.01416016 88.9519043 C18.67427944 76.16441059 13.40491723 63.34839469 8.1640625 50.52001953 C5.04027602 42.87781141 1.89709027 35.24560175 -1.31640625 27.640625 C-1.88596994 26.28708958 -2.45539132 24.93349426 -3.0246582 23.57983398 C-4.06983702 21.09460503 -5.1256772 18.61491743 -6.18823242 16.13696289 C-6.64689697 15.04633545 -7.10556152 13.95570801 -7.578125 12.83203125 C-7.97902344 11.89149902 -8.37992188 10.9509668 -8.79296875 9.98193359 C-9.68401812 7.23743993 -9.9590082 5.23470576 -9.640625 2.37109375 C-6.76801826 -0.50151299 -3.85131726 0.02804511 0 0 Z "
     fill="#F8B85D"
     transform="translate(643.640625,515.62890625)"
     id="path3" />
  <path
     d="M0 0 C11.35521588 9.65278472 17.77847391 21.37075764 20.29296875 35.96484375 C20.56320154 39.316405 20.5869305 42.64967552 20.58349609 46.01098633 C20.59021332 46.97147888 20.59693054 47.93197144 20.60385132 48.92156982 C20.62271056 52.06755871 20.62674807 55.21333327 20.62890625 58.359375 C20.63533792 60.55653469 20.64206656 62.75369353 20.64907837 64.95085144 C20.66101746 69.54106637 20.66476219 74.13120619 20.66357422 78.72143555 C20.66337015 84.6073664 20.69077794 90.49281918 20.72511864 96.37863636 C20.74732237 100.90903449 20.75141392 105.43931582 20.75035477 109.9697628 C20.7527165 112.14073028 20.76157209 114.31170071 20.7770195 116.48261452 C20.79656568 119.51064716 20.79088823 122.53762504 20.77880859 125.56567383 C20.79004761 126.46287643 20.80128662 127.36007904 20.81286621 128.2844696 C20.75147236 134.32575728 20.75147236 134.32575728 18.45913696 137.52093506 C15.4020402 139.55871244 13.13384797 139.4665304 9.48046875 139.4609375 C8.50436646 139.46312035 8.50436646 139.46312035 7.50854492 139.46534729 C6.13683582 139.46369208 4.76510743 139.45217271 3.39355469 139.43139648 C1.29932414 139.40243165 -0.79237383 139.4107938 -2.88671875 139.42382812 C-4.2226685 139.41759014 -5.55861028 139.40919872 -6.89453125 139.3984375 C-8.10496094 139.38868896 -9.31539063 139.37894043 -10.5625 139.36889648 C-13.94328724 138.93448632 -15.33554703 138.37064091 -17.70703125 135.96484375 C-18.94840198 132.24073155 -18.8515193 128.78296718 -18.84887695 124.90429688 C-18.85235138 124.08272095 -18.85582581 123.26114502 -18.85940552 122.41467285 C-18.86675998 120.62879615 -18.87210702 118.84291033 -18.87569618 117.05702209 C-18.88287231 114.22246953 -18.89855031 111.38808901 -18.91703796 108.55358887 C-18.96943337 100.49343313 -19.01741602 92.43336902 -19.03295898 84.37304688 C-19.04309139 79.44160807 -19.07255403 74.51059885 -19.11427879 69.57933044 C-19.12652498 67.70726281 -19.13172182 65.8351343 -19.12948036 63.96302795 C-19.11733521 50.50041213 -19.70716304 38.15032436 -29.70703125 27.96484375 C-36.97953323 21.84315527 -46.77192216 19.26440123 -56.1796875 19.62109375 C-65.74883481 20.9226161 -76.19794971 25.85883695 -82.625 33.13671875 C-88.63800922 41.74794183 -90.85628838 50.58814825 -90.84887695 60.99633789 C-90.85235138 61.79043564 -90.85582581 62.58453339 -90.85940552 63.4026947 C-90.86673706 65.12088896 -90.87209625 66.83909253 -90.87569618 68.55729866 C-90.882883 71.27667491 -90.89856381 73.99587296 -90.91703796 76.7151947 C-90.96942004 84.4446273 -91.0175226 92.17395792 -91.03295898 99.90356445 C-91.043029 104.63628892 -91.07232039 109.3685581 -91.11427879 114.10110283 C-91.1265997 115.90359495 -91.13170806 117.7061513 -91.12948036 119.50868416 C-91.12713244 122.02720096 -91.14925069 124.54440461 -91.17700195 127.06274414 C-91.16709984 128.17953049 -91.16709984 128.17953049 -91.15699768 129.31887817 C-91.219118 132.74801525 -91.46762973 134.64398091 -93.54362488 137.42637634 C-96.58555282 139.58958851 -98.81122875 139.48227154 -102.51953125 139.49609375 C-103.17026611 139.49992065 -103.82100098 139.50374756 -104.49145508 139.50769043 C-105.86313429 139.51040451 -107.23486569 139.50307828 -108.60644531 139.48632812 C-110.7010481 139.46490494 -112.79222209 139.48614012 -114.88671875 139.51171875 C-116.22266379 139.50907538 -117.5586067 139.50395018 -118.89453125 139.49609375 C-120.10496094 139.49158203 -121.31539063 139.48707031 -122.5625 139.48242188 C-126.27859332 138.87076676 -127.41942209 137.88850653 -129.70703125 134.96484375 C-130.99732471 132.38425682 -130.84168848 130.52361574 -130.85420227 127.63285828 C-130.86135757 126.50142395 -130.86851288 125.36998962 -130.87588501 124.20426941 C-130.87857391 122.95696548 -130.88126282 121.70966156 -130.8840332 120.42456055 C-130.89389 118.46107162 -130.89389 118.46107162 -130.90394592 116.45791626 C-130.92136074 112.86071239 -130.93190897 109.26352181 -130.94015145 105.66628623 C-130.94530059 103.41925879 -130.95137636 101.17223548 -130.95766258 98.92521095 C-130.97671601 91.89594381 -130.99094682 84.86668719 -130.99927455 77.83739918 C-131.0090486 69.7211035 -131.03537161 61.60508043 -131.07577544 53.48888081 C-131.10592711 47.21704967 -131.12074251 40.94529672 -131.12405556 34.6733945 C-131.12640715 30.92674441 -131.13538116 27.18038549 -131.16051674 23.4338131 C-131.1881091 19.25347077 -131.18396928 15.0737381 -131.17700195 10.89331055 C-131.18981201 9.65207932 -131.20262207 8.41084808 -131.21582031 7.13200378 C-131.20540459 5.42216309 -131.20540459 5.42216309 -131.19477844 3.67778015 C-131.1971668 2.68945033 -131.19955515 1.70112051 -131.20201588 0.6828413 C-130.56698489 -2.8041613 -129.12264091 -4.49161577 -126.70703125 -7.03515625 C-122.37543072 -9.20095652 -116.65228981 -8.35397231 -111.89453125 -8.41015625 C-110.70537109 -8.44753906 -109.51621094 -8.48492188 -108.29101562 -8.5234375 C-99.59298859 -8.61134569 -99.59298859 -8.61134569 -95.43359375 -5.90625 C-93.46231159 -2.62821292 -93.0199789 -0.52790169 -92.89453125 3.27734375 C-92.84683594 4.34597656 -92.79914063 5.41460938 -92.75 6.515625 C-92.73582031 7.32386719 -92.72164063 8.13210938 -92.70703125 8.96484375 C-92.08828125 8.28421875 -91.46953125 7.60359375 -90.83203125 6.90234375 C-67.9293676 -15.87129081 -26.06856094 -19.59844192 0 0 Z "
     fill="#BEBF64"
     transform="translate(516.70703125,524.03515625)"
     id="path4" />
  <path
     d="M0 0 C2.10137675 -0.01186398 4.1997836 -0.06099629 6.30053711 -0.11157227 C7.64231969 -0.12104084 8.98412027 -0.12827381 10.32592773 -0.13305664 C11.5438501 -0.14651123 12.76177246 -0.15996582 14.01660156 -0.17382812 C18.48798135 0.64080916 19.63087481 1.7315289 22.30639648 5.42553711 C23.04583241 9.45170881 22.94768186 13.43210178 22.88989258 17.51513672 C22.89219218 18.74771021 22.89449179 19.9802837 22.89686108 21.2502079 C22.89812756 24.64677607 22.87701882 28.04184285 22.84613347 31.43818021 C22.81860952 35.05136298 22.8197339 38.66454592 22.81736755 42.27781677 C22.80818511 49.23899248 22.77232325 56.19977401 22.72629029 63.16079396 C22.68981167 68.74790588 22.66306419 74.33498435 22.6434021 79.92218018 C22.64061943 80.71103977 22.63783676 81.49989936 22.63496977 82.31266379 C22.62939581 83.90596635 22.62384655 85.499269 22.61832201 87.09257174 C22.56830301 101.21435914 22.49049659 115.33585221 22.39741957 129.4574151 C22.32677633 140.23064993 22.28130056 151.00363339 22.26069641 161.77710056 C22.24422486 170.15684468 22.20427347 178.53623699 22.14776611 186.915802 C22.12642714 190.1585851 22.11519059 193.40116162 22.11248779 196.64401245 C22.10842676 200.34937211 22.08094546 204.05375672 22.03334236 207.75880623 C22.01425929 209.6778512 22.019209 211.59708976 22.0252533 213.51622009 C21.88442186 221.54281671 21.88442186 221.54281671 19.17822266 225.67553711 C15.73701817 227.77249824 13.66739347 228.07001693 9.65014648 228.08959961 C7.74555664 228.09926758 7.74555664 228.09926758 5.80249023 228.10913086 C4.4837793 228.08979492 3.16506836 228.07045898 1.80639648 228.05053711 C0.48768555 228.06987305 -0.83102539 228.08920898 -2.18969727 228.10913086 C-3.45942383 228.10268555 -4.72915039 228.09624023 -6.03735352 228.08959961 C-7.19428711 228.08395996 -8.3512207 228.07832031 -9.54321289 228.07250977 C-13.76665319 227.20517275 -15.05209742 225.81511841 -17.69360352 222.42553711 C-18.4082448 219.51101605 -18.36077561 216.68493049 -18.31506348 213.69567871 C-18.3214523 212.81697066 -18.32784112 211.93826261 -18.33442354 211.03292704 C-18.34968431 208.08846392 -18.32920502 205.14534401 -18.30883789 202.20092773 C-18.31233875 200.09009861 -18.31799694 197.97927212 -18.32565308 195.86845398 C-18.33991555 190.13495128 -18.32282487 184.40192733 -18.2993679 178.66847038 C-18.27928034 172.67168214 -18.28513737 166.67491419 -18.28747559 160.67810059 C-18.28742199 150.6070159 -18.26765147 140.53611869 -18.2355957 130.46508789 C-18.19870202 118.81741466 -18.18991995 107.16998708 -18.19689322 95.52226305 C-18.20319592 84.32292898 -18.1924482 73.12367924 -18.17292786 61.92436218 C-18.16474775 57.15572407 -18.16204544 52.38712904 -18.16362 47.6184845 C-18.16449819 42.00419747 -18.15030011 36.3901443 -18.12439346 30.77591896 C-18.11722417 28.71395311 -18.1151517 26.65196238 -18.1185112 24.5899868 C-18.12221886 21.77820166 -18.10750312 18.9671017 -18.0880127 16.15539551 C-18.09334062 15.33681643 -18.09866855 14.51823735 -18.10415792 13.67485285 C-17.94741964 0.59460682 -10.9699383 0.02936211 0 0 Z "
     fill="#E6BD63"
     transform="translate(588.693603515625,435.574462890625)"
     id="path5" />
  <path
     d="M0 0 C1.76923828 -0.00290039 1.76923828 -0.00290039 3.57421875 -0.00585938 C4.79753906 0.01798828 6.02085937 0.04183594 7.28125 0.06640625 C8.50457031 0.05544922 9.72789062 0.04449219 10.98828125 0.03320312 C21.22389222 0.11710158 21.22389222 0.11710158 25.78125 4.62890625 C26.81340621 7.72537488 26.91696583 9.87897809 26.93515015 13.12583923 C26.94375061 14.26850754 26.95235107 15.41117584 26.96121216 16.58847046 C26.96547211 17.84310089 26.96973206 19.09773132 26.97412109 20.39038086 C26.9820241 21.7242199 26.99029317 23.05805681 26.99890137 24.39189148 C27.02508961 28.77165696 27.0404217 33.15143188 27.0546875 37.53125 C27.06004772 39.03901233 27.06542523 40.54677461 27.07081985 42.05453682 C27.09244023 48.32456478 27.1111786 54.59459018 27.12244225 60.86464596 C27.13869498 69.85259779 27.17191388 78.84011829 27.22884309 87.8279075 C27.2675083 94.14729891 27.2870706 100.46657476 27.29236281 106.78608137 C27.29601986 110.56126244 27.30807825 114.33598314 27.34046555 118.1110363 C27.37048826 121.66115751 27.37687955 125.21053836 27.36508179 128.76075935 C27.36475507 130.68518109 27.38925731 132.60955674 27.41445923 134.53381348 C27.40614075 135.67930161 27.39782227 136.82478973 27.38925171 138.00498962 C27.39256186 139.00031676 27.395872 139.9956439 27.39928246 141.02113247 C26.54175859 144.63943476 24.86478669 145.68033984 21.78125 147.62890625 C18.61499023 148.14648438 18.61499023 148.14648438 15.08984375 148.16015625 C13.81560547 148.1653125 12.54136719 148.17046875 11.22851562 148.17578125 C10.57020752 148.16740234 9.91189941 148.15902344 9.23364258 148.15039062 C7.22029667 148.12892274 5.21050297 148.15023816 3.19726562 148.17578125 C1.92431641 148.170625 0.65136719 148.16546875 -0.66015625 148.16015625 C-2.40341187 148.15338867 -2.40341187 148.15338867 -4.18188477 148.14648438 C-7.92154273 147.50912809 -8.88647038 146.56969756 -11.21875 143.62890625 C-11.72490788 140.99548435 -11.72490788 140.99548435 -11.7334137 137.94252014 C-11.74613815 136.78309402 -11.75886261 135.62366791 -11.77197266 134.42910767 C-11.76544678 133.16094208 -11.7589209 131.89277649 -11.75219727 130.58618164 C-11.75925632 129.23410602 -11.76800129 127.88203831 -11.77830505 126.52998352 C-11.8008117 122.86045077 -11.79785647 119.19134907 -11.78898358 115.52177358 C-11.78387399 112.45760464 -11.79116605 109.39351673 -11.79845566 106.32935613 C-11.81545892 99.10011398 -11.81188491 91.87108288 -11.79516602 84.6418457 C-11.77824498 77.18558856 -11.7940775 69.72991685 -11.8263889 62.27372366 C-11.8530866 55.87017679 -11.86036034 49.46681214 -11.85187382 43.0632152 C-11.84694492 39.23945559 -11.84915761 35.41604822 -11.86966133 31.59233284 C-11.88802166 27.99614968 -11.88205696 24.40080829 -11.85746193 20.80467033 C-11.85006929 18.85784997 -11.86730712 16.9109848 -11.88528442 14.9642334 C-11.78166735 5.44717193 -11.78166735 5.44717193 -8.86473083 2.34509277 C-5.66803265 0.27171028 -3.7948804 -0.00256411 0 0 Z "
     fill="#83BB69"
     transform="translate(325.21875,515.37109375)"
     id="path6" />
  <path
     d="M0 0 C5.61802874 3.34943785 9.57191555 8.22255308 11.5625 14.4375 C12.46942528 22.25615053 12.24554122 29.39273279 8.2578125 36.30859375 C3.90115986 41.77950548 -1.79318345 44.86714534 -8.6640625 45.7109375 C-15.55043991 46.00254306 -20.87083794 44.60531067 -26.4375 40.4375 C-32.49985586 33.41598845 -33.91951011 27.2607236 -33.84375 18.09375 C-33.1335727 11.70215432 -30.30654891 7.05232939 -25.5859375 2.75 C-18.45325921 -2.59192076 -8.23239796 -3.73329675 0 0 Z "
     fill="#77BA6D"
     transform="translate(343.4375,455.5625)"
     id="path7" />
</svg>
