<?xml version="1.0" encoding="UTF-8" standalone="no"?>
<svg
   version="1.1"
   width="486.61911"
   height="522.21234"
   id="svg18"
   sodipodi:docname="logo-kinly.svg"
   inkscape:version="1.3.2 (091e20e, 2023-11-25, custom)"
   xmlns:inkscape="http://www.inkscape.org/namespaces/inkscape"
   xmlns:sodipodi="http://sodipodi.sourceforge.net/DTD/sodipodi-0.dtd"
   xmlns="http://www.w3.org/2000/svg"
   xmlns:svg="http://www.w3.org/2000/svg">
  <defs
     id="defs1" />
  <sodipodi:namedview
     id="namedview1"
     pagecolor="#ffffff"
     bordercolor="#000000"
     borderopacity="0.25"
     inkscape:showpageshadow="2"
     inkscape:pageopacity="0.0"
     inkscape:pagecheckerboard="0"
     inkscape:deskcolor="#d1d1d1"
     inkscape:zoom="0.75878906"
     inkscape:cx="-183.18662"
     inkscape:cy="103.45431"
     inkscape:window-width="2400"
     inkscape:window-height="1261"
     inkscape:window-x="2391"
     inkscape:window-y="-9"
     inkscape:window-maximized="1"
     inkscape:current-layer="svg18" />
  <path
     d="m 225.34852,7.6957068 c 17.85008,12.2318432 35.20949,25.1116142 52.38574,38.2685552 6.2383,4.76451 12.56357,9.387755 18.94946,13.95166 5.94234,4.264714 11.76297,8.676993 17.56714,13.127441 6.27,4.806132 12.56811,9.541502 19.02027,14.099854 12.67345,8.959365 25.06131,18.306423 37.3811,27.743653 5.83402,4.46071 11.72761,8.82937 17.66113,13.1565 7.32119,5.35082 14.3971,10.94146 21.39453,16.70703 3.71483,3.05831 7.4968,6.0242 11.29297,8.98047 2.16998,1.7042 4.33528,3.41412 6.5,5.125 0.83918,0.65742 1.67836,1.31484 2.54297,1.99218 1.06155,0.87012 1.06155,0.87012 2.14453,1.75782 0.58137,0.46921 1.16274,0.93843 1.76172,1.42187 4.21654,4.97063 5.0112,10.45148 4.98438,16.77344 0.005,0.7329 0.0105,1.4658 0.0159,2.22092 0.006,1.53783 0.005,3.07572 -0.003,4.61355 -0.009,2.34642 0.0204,4.69044 0.052,7.03662 0.002,1.5013 10e-4,3.00261 -0.002,4.50391 0.0112,0.69594 0.0225,1.39188 0.034,2.10892 -0.0503,3.528 -0.47298,5.48031 -2.37364,8.48825 -4.85154,4.68511 -12.1562,3.38044 -18.50537,3.43261 -1.46338,0.0165 -2.92668,0.0436 -4.38965,0.082 -12.3711,0.32249 -20.42021,-1.9561 -30.19898,-9.86963 -1.10907,-0.88093 -2.21986,-1.7597 -3.33203,-2.63672 -0.59377,-0.4697 -1.18755,-0.93941 -1.79931,-1.42334 -3.63044,-2.82449 -7.3471,-5.53257 -11.05616,-8.25244 -0.80622,-0.59225 -1.61245,-1.18449 -2.44311,-1.79468 -1.65309,-1.21405 -3.30649,-2.42767 -4.96021,-3.64087 -3.99471,-2.93251 -7.98294,-5.87382 -11.97168,-8.81445 -1.5833,-1.16671 -3.16663,-2.33338 -4.75,-3.5 -15.83333,-11.66667 -31.66667,-23.33334 -47.5,-35 -0.78399,-0.57766 -1.56798,-1.15533 -2.37573,-1.75049 -1.58096,-1.16495 -3.16185,-2.32999 -4.74268,-3.49512 -3.99415,-2.94366 -7.98948,-5.88571 -11.98706,-8.82471 -7.40509,-5.44602 -14.7988,-10.90466 -22.14489,-16.42964 -11.84737,-8.901546 -23.70165,-17.796449 -35.875,-26.250007 -0.64775,-0.45383 -1.29551,-0.907661 -1.96289,-1.375244 -5.74226,-3.945139 -10.10951,-6.184071 -17.16211,-5.374756 -6.98017,2.829101 -12.98319,6.892155 -18.9375,11.4375 -1.66128,1.246332 -3.32274,2.492419 -4.98438,3.738281 -0.83982,0.633736 -1.67964,1.267471 -2.54492,1.920411 -4.04903,3.043014 -8.13691,6.03272 -12.2207,9.028805 -7.82117,5.7572 -15.60071,11.56812 -23.36084,17.40723 -3.31458,2.49278 -6.63336,4.97996 -9.95166,7.46778 -1.33335,0.99997 -2.66668,1.99997 -4,3 -24.000005,18 -24.000005,18 -25.998785,19.49902 -1.33748,1.00315 -2.67488,2.00641 -4.0122,3.00977 -3.26926,2.45263 -6.53972,4.90363 -9.81323,7.35058 -8.59563,6.42926 -17.1452,12.91693 -25.67847,19.42871 -5.37756,4.10216 -10.77238,8.17808 -16.19263,12.22363 -2.84167,2.1308 -5.66321,4.28746 -8.48437,6.44532 -0.93586,0.71543 -1.87172,1.43086 -2.83594,2.16797 -1.86842,1.42938 -3.73565,2.86031 -5.60156,4.29296 -12.52748,9.58204 -12.52748,9.58204 -17.0703198,9.58204 -3.3125,-1 -3.3125,-1 -5.1875,-2.875 -2.17951998,-4.11688 -2.25662998,-7.41271 -2.27216998,-12.01314 -0.004,-0.70479 -0.007,-1.40957 -0.0111,-2.13571 -0.011,-2.36747 -0.0149,-4.73489 -0.0187,-7.10237 -0.006,-1.69513 -0.0129,-3.39024 -0.0199,-5.08536 -0.0174,-4.60958 -0.028,-9.21915 -0.0362,-13.82875 -0.005,-2.87939 -0.0112,-5.75877 -0.0175,-8.63816 -0.0191,-9.0075 -0.0333,-18.01499 -0.0416,-27.02251 -0.01,-10.40057 -0.0361,-20.80092 -0.0765,-31.20142 -0.0302,-8.037457 -0.045,-16.074853 -0.0483,-24.112366 -0.002,-4.801309 -0.0113,-9.602392 -0.0365,-14.403642 -0.0233,-4.516898 -0.0275,-9.03342 -0.0172,-13.550363 5e-4,-1.656817 -0.006,-3.313652 -0.0196,-4.970411 -0.0177,-2.264358 -0.01059999575,-4.527358 0.003,-6.791716 -0.002,-1.266334 -0.005,-2.532669 -0.007,-3.837377 0.71037,-4.925009 2.90032998,-8.050613 6.62608998,-11.277415 4.2426598,-1.707029 8.2365398,-1.622052 12.7712398,-1.623047 0.95532,-0.0076 1.91064,-0.01523 2.89491,-0.02307 2.01637,-0.01079 4.03279,-0.01366 6.04918,-0.0092 3.07753,9.72e-4 6.15257,-0.04067 9.22974,-0.08496 1.96288,-0.0052 3.92578,-0.0079 5.88867,-0.0078 0.91579,-0.0164 1.83158,-0.03279 2.77513,-0.04968 4.24927,0.04575 7.32542,0.217235 10.76222,2.868042 4.03367,4.48194 4.74517,8.181509 4.81665,14.12622 0.0199,1.26093 0.0397,2.52186 0.0602,3.820999 0.0119,1.365899 0.0235,2.7318 0.035,4.097702 0.0187,1.405341 0.0383,2.810671 0.0587,4.215989 0.0512,3.687336 0.0909,7.374709 0.12814,11.06221 0.0401,3.767384 0.0912,7.534618 0.1413,11.30188 0.0966,7.38336 0.18108,14.766793 0.25781,22.15039 0.76256,-0.645014 1.52513,-1.290029 2.31079,-1.95459 6.06494,-5.107047 12.19113,-10.032951 18.62671,-14.67041 7.02906,-5.119044 13.97474,-10.333695 20.875005,-15.625 6.24801,-4.783441 12.52393,-9.50002 18.95581,-14.033203 4.84079,-3.415532 9.59879,-6.936989 14.35669,-10.466797 8.23517,-6.09668 16.58875,-12.006584 25.00391,-17.851562 3.19335,-2.219425 6.36697,-4.462795 9.52343,-6.734375 19.23914,-13.82671257 31.81453,-20.9476372 53.19461,-6.8241912 z"
     fill="#9bc47c"
     id="path2" />
  <path
     d="m 335.14148,302.48478 c 0.7598,-0.009 1.5196,-0.0181 2.30242,-0.0274 1.61058,-0.0145 3.22122,-0.0234 4.83185,-0.0271 2.45237,-0.0119 4.90218,-0.061 7.35401,-0.11157 1.56639,-0.009 3.1328,-0.0167 4.69922,-0.0215 0.72834,-0.0195 1.45668,-0.0391 2.20709,-0.0592 3.91087,0.0343 5.97796,0.62615 9.30145,2.73765 2.9207,3.15845 4.07202,5.46223 5.44849,9.52076 0.23735,0.67975 0.4747,1.35951 0.71925,2.05987 0.54044,1.55155 1.07272,3.10594 1.59843,4.66254 0.98732,2.90195 2.00938,5.79016 3.0373,8.67798 2.45287,6.89587 4.87587,13.80204 7.29736,20.70898 0.82862,2.35943 1.6574,4.7188 2.48633,7.07813 3.04378,8.66604 6.08672,17.33237 9.11206,26.00488 0.31401,0.89954 0.62802,1.79909 0.95155,2.72589 0.57029,1.63443 1.13982,3.26913 1.70835,4.90417 2.63829,7.56101 5.45134,15.05467 8.30421,22.53693 2.33351,-3.50026 3.4768,-7.07692 4.76563,-11.03906 0.26995,-0.81689 0.5399,-1.63377 0.81803,-2.47541 0.58548,-1.77269 1.16899,-3.54603 1.75078,-5.31994 1.56222,-4.76159 3.13997,-9.51804 4.71634,-14.27496 0.32497,-0.98174 0.64994,-1.96347 0.98476,-2.97495 3.40848,-10.28369 6.89628,-20.53979 10.40196,-30.79068 0.4205,-1.23161 0.4205,-1.23161 0.84949,-2.4881 2.24723,-6.58109 2.24723,-6.58109 3.2648,-9.51315 1.45072,-4.18068 2.85448,-8.37067 4.20261,-12.58566 0.29746,-0.9055 0.59491,-1.811 0.90138,-2.74393 0.5696,-1.73394 1.12457,-3.47279 1.66196,-5.21698 1.84867,-5.54341 3.59318,-8.54138 8.68227,-11.57718 2.93343,-0.45522 5.25899,-0.63671 8.17187,-0.55859 0.76363,0.002 1.52726,0.005 2.31403,0.007 1.60361,0.01 3.20718,0.0314 4.81048,0.0645 2.46031,0.0497 4.91863,0.0615 7.3794,0.0671 1.56122,0.0141 3.12242,0.0303 4.68359,0.0488 1.10466,0.008 1.10466,0.008 2.23163,0.0163 5.17562,0.12147 5.17562,0.12147 7.40899,2.35484 0.50748,5.42508 -0.659,9.61608 -2.71875,14.55469 -0.28932,0.72176 -0.57865,1.44352 -0.87675,2.18715 -0.95744,2.3822 -1.93116,4.75741 -2.9045,7.13316 -0.68019,1.68637 -1.35896,3.37331 -2.03637,5.06079 -1.06224,2.64549 -2.12542,5.29056 -3.19295,7.93392 -3.55252,8.79799 -7.00926,17.63228 -10.44929,26.47474 -1.01106,2.59865 -2.0238,5.19664 -3.03696,7.79447 -3.80109,9.74921 -7.58624,19.50451 -11.35889,29.26477 -1.6727,4.32618 -3.3485,8.65117 -5.02417,12.9762 -0.94612,2.44409 -1.89075,4.88877 -2.83398,7.33398 -29.99963,77.70495 -29.99963,77.70495 -59.56739,91.28613 -10.4126,3.90921 -20.19724,5.19168 -31.25,5.25 -0.99258,0.0206 -1.98516,0.0412 -3.00781,0.0625 -0.95133,0.005 -1.90266,0.0103 -2.88281,0.0156 -0.86142,0.009 -1.72284,0.0187 -2.61036,0.0283 -2.24902,-0.35645 -2.24902,-0.35645 -4.02563,-1.53931 -2.62441,-3.89812 -1.69008,-9.21999 -1.66089,-13.75464 -0.02,-1.09763 -0.04,-2.19527 -0.0606,-3.32617 6.5e-4,-1.05638 0.001,-2.11277 0.002,-3.20117 -0.003,-1.44814 -0.003,-1.44814 -0.006,-2.92554 0.64802,-3.37065 1.81002,-4.53435 4.50171,-6.60962 2.88674,-0.61776 5.58357,-1.04934 8.5,-1.375 11.24832,-1.59722 20.46008,-4.96897 27.8086,-14.0664 4.65536,-7.04219 7.51698,-14.03084 6.6914,-22.5586 -0.74055,-2.79833 -1.82267,-5.39406 -2.97265,-8.04687 -0.31413,-0.7559 -0.62825,-1.51179 -0.95189,-2.29059 -1.03284,-2.47659 -2.0853,-4.94431 -3.13796,-7.41254 -0.73312,-1.74813 -1.46487,-3.49684 -2.19531,-5.24609 -1.50312,-3.59369 -3.01393,-7.18398 -4.53174,-10.77148 -2.03245,-4.80537 -4.04617,-9.61831 -6.05029,-14.43555 -0.30428,-0.73132 -0.60856,-1.46263 -0.92206,-2.21611 -0.60899,-1.46386 -1.21792,-2.92774 -1.82678,-4.39165 -0.91727,-2.20338 -1.83658,-4.40594 -2.75652,-6.60826 -5.33989,-12.78749 -10.60925,-25.60351 -15.8501,-38.43188 -3.12379,-7.64221 -6.26697,-15.27442 -9.48047,-22.8794 -0.56956,-1.35353 -1.13899,-2.70713 -1.70825,-4.06079 -1.04518,-2.48523 -2.10102,-4.96492 -3.16358,-7.44287 -0.45866,-1.09063 -0.91733,-2.18126 -1.38989,-3.30493 -0.4009,-0.94053 -0.8018,-1.88107 -1.21484,-2.8501 -0.89105,-2.74449 -1.16604,-4.74723 -0.84766,-7.61084 2.87261,-2.87261 5.78931,-2.34305 9.64063,-2.37109 z"
     fill="#f8b85d"
     id="path3" />
  <path
     d="m 208.20789,310.89103 c 11.35521,9.65278 17.77847,21.37075 20.29296,35.96484 0.27024,3.35156 0.29397,6.68483 0.29053,10.04614 0.007,0.9605 0.0134,1.92099 0.0204,2.91059 0.0189,3.14599 0.0229,6.29176 0.0251,9.4378 0.006,2.19716 0.0132,4.39432 0.0202,6.59148 0.0119,4.59021 0.0157,9.18035 0.0145,13.77058 -2e-4,5.88593 0.0272,11.77139 0.0615,17.6572 0.0222,4.5304 0.0263,9.06069 0.0252,13.59113 0.002,2.17097 0.0112,4.34194 0.0267,6.51285 0.0195,3.02804 0.0139,6.05502 0.002,9.08306 0.0112,0.89721 0.0225,1.79441 0.0341,2.7188 -0.0614,6.04129 -0.0614,6.04129 -2.35373,9.23647 -3.05709,2.03777 -5.32529,1.94559 -8.97867,1.94 -0.9761,0.002 -0.9761,0.002 -1.97192,0.004 -1.37171,-0.002 -2.74344,-0.0132 -4.11499,-0.034 -2.09423,-0.029 -4.18593,-0.0206 -6.28027,-0.008 -1.33595,-0.006 -2.6719,-0.0146 -4.00782,-0.0254 -1.21043,-0.01 -2.42086,-0.0195 -3.66796,-0.0295 -3.38079,-0.43441 -4.77305,-0.99826 -7.14454,-3.40406 -1.24137,-3.72411 -1.14448,-7.18187 -1.14184,-11.06054 -0.004,-0.82158 -0.007,-1.64315 -0.0105,-2.48963 -0.007,-1.78587 -0.0127,-3.57176 -0.0163,-5.35765 -0.007,-2.83455 -0.0229,-5.66893 -0.0413,-8.50343 -0.0524,-8.06016 -0.10038,-16.12022 -0.11592,-24.18055 -0.0101,-4.93144 -0.0396,-9.86244 -0.0813,-14.79371 -0.0122,-1.87207 -0.0174,-3.7442 -0.0152,-5.61631 0.0121,-13.46261 -0.57769,-25.8127 -10.57755,-35.99818 -7.27251,-6.12169 -17.06489,-8.70044 -26.47266,-8.34375 -9.56915,1.30152 -20.01826,6.23774 -26.44531,13.51563 -6.01301,8.61122 -8.23129,17.45142 -8.22388,27.85961 -0.004,0.7941 -0.007,1.5882 -0.0105,2.40636 -0.007,1.7182 -0.0127,3.4364 -0.0163,5.15461 -0.007,2.71937 -0.0229,5.43857 -0.0413,8.15789 -0.0524,7.72943 -0.10048,15.45876 -0.11592,23.18837 -0.0101,4.73273 -0.0394,9.465 -0.0813,14.19754 -0.0123,1.80249 -0.0174,3.60505 -0.0152,5.40758 0.002,2.51852 -0.0198,5.03572 -0.0475,7.55406 0.01,1.11679 0.01,1.11679 0.02,2.25614 -0.0621,3.42914 -0.31063,5.3251 -2.38663,8.1075 -3.04193,2.16321 -5.2676,2.05589 -8.9759,2.06971 -0.65074,0.004 -1.30147,0.008 -1.97193,0.0116 -1.37167,0.003 -2.74341,-0.005 -4.114993,-0.0214 -2.0946,-0.0214 -4.18577,-1.9e-4 -6.28027,0.0254 -1.33594,-0.003 -2.67189,-0.008 -4.00781,-0.0156 -1.21043,-0.005 -2.42086,-0.009 -3.66797,-0.0137 -3.71609,-0.61165 -4.85692,-1.59391 -7.14453,-4.51758 -1.29029,-2.58058 -1.13466,-4.44122 -1.14717,-7.33198 -0.007,-1.13144 -0.0143,-2.26287 -0.0217,-3.42859 -0.003,-1.2473 -0.005,-2.49461 -0.008,-3.77971 -0.01,-1.96349 -0.01,-1.96349 -0.0199,-3.96664 -0.0174,-3.59721 -0.028,-7.1944 -0.0362,-10.79163 -0.005,-2.24703 -0.0112,-4.49405 -0.0175,-6.74108 -0.0191,-7.02927 -0.0333,-14.05853 -0.0416,-21.08781 -0.01,-8.1163 -0.0361,-16.23232 -0.0765,-24.34852 -0.0301,-6.27183 -0.045,-12.54359 -0.0483,-18.81549 -0.002,-3.74665 -0.0113,-7.49301 -0.0365,-11.23958 -0.0276,-4.18034 -0.0234,-8.36008 -0.0165,-12.5405 -0.0128,-1.24123 -0.0256,-2.48247 -0.0388,-3.76131 0.0104,-1.70984 0.0104,-1.70984 0.021,-3.45422 -0.002,-0.98833 -0.005,-1.97666 -0.007,-2.99494 0.63504,-3.487 2.07938,-5.17446 4.49499,-7.718 4.3316,-2.1658 10.05474,-1.31882 14.8125,-1.375 1.18916,-0.0374 2.37832,-0.0748 3.60351,-0.11328 8.698033,-0.0879 8.698033,-0.0879 12.857423,2.61719 1.97129,3.27803 2.41362,5.37835 2.53907,9.18359 0.0477,1.06863 0.0954,2.13727 0.14453,3.23828 0.0142,0.80824 0.0284,1.61649 0.043,2.44922 0.61875,-0.68062 1.2375,-1.36125 1.875,-2.0625 22.90232,-22.77274 64.76312,-26.4999 90.83169,-6.90145 z"
     fill="#bebf64"
     id="path4" />
  <path
     d="m 280.19446,222.43033 c 2.10137,-0.0119 4.19978,-0.061 6.30053,-0.11158 1.34178,-0.009 2.68359,-0.0167 4.02539,-0.0215 1.21793,-0.0135 2.43585,-0.0269 3.69068,-0.0408 4.47138,0.81464 5.61427,1.90536 8.28979,5.59936 0.73944,4.02618 0.64129,8.00657 0.5835,12.0896 0.002,1.23258 0.005,2.46515 0.007,3.73507 0.001,3.39657 -0.0198,6.79164 -0.0507,10.18798 -0.0275,3.61318 -0.0264,7.22636 -0.0288,10.83963 -0.009,6.96118 -0.045,13.92196 -0.0911,20.88298 -0.0365,5.58711 -0.0632,11.17419 -0.0829,16.76139 -0.003,0.78886 -0.006,1.57772 -0.008,2.39048 -0.006,1.5933 -0.0111,3.18661 -0.0167,4.77991 -0.05,14.12179 -0.12783,28.24328 -0.2209,42.36485 -0.0706,10.77323 -0.11612,21.54621 -0.13673,32.31968 -0.0165,8.37974 -0.0564,16.75914 -0.11293,25.1387 -0.0213,3.24279 -0.0326,6.48536 -0.0353,9.72821 -0.004,3.70536 -0.0315,7.40975 -0.0792,11.1148 -0.0191,1.91904 -0.0141,3.83828 -0.008,5.75741 -0.14083,8.0266 -0.14083,8.0266 -2.84703,12.15932 -3.4412,2.09696 -5.51083,2.39448 -9.52807,2.41406 -1.90459,0.01 -1.90459,0.01 -3.84766,0.0195 -1.31871,-0.0193 -2.63742,-0.0387 -3.99609,-0.0586 -1.31872,0.0193 -2.63743,0.0387 -3.9961,0.0586 -1.26972,-0.006 -2.53945,-0.0129 -3.84765,-0.0195 -1.15694,-0.006 -2.31387,-0.0113 -3.50586,-0.0171 -4.22344,-0.86734 -5.50889,-2.25739 -8.15039,-5.64697 -0.71465,-2.91452 -0.66718,-5.74061 -0.62146,-8.72986 -0.006,-0.87871 -0.0128,-1.75742 -0.0194,-2.66275 -0.0153,-2.94447 0.005,-5.88759 0.0256,-8.832 -0.004,-2.11083 -0.009,-4.22166 -0.0168,-6.33248 -0.0143,-5.7335 0.003,-11.46652 0.0263,-17.19998 0.0201,-5.99679 0.0142,-11.99356 0.0119,-17.99037 5e-5,-10.07108 0.0198,-20.14198 0.0519,-30.21301 0.0369,-11.64768 0.0457,-23.2951 0.0387,-34.94283 -0.006,-11.19933 0.004,-22.39858 0.024,-33.5979 0.008,-4.76864 0.0109,-9.53723 0.009,-14.30588 -8.8e-4,-5.61429 0.0133,-11.22834 0.0392,-16.84256 0.007,-2.06197 0.009,-4.12396 0.006,-6.18594 -0.004,-2.81178 0.011,-5.62288 0.0305,-8.43459 -0.005,-0.81858 -0.0107,-1.63716 -0.0162,-2.48054 0.15668,-13.08024 7.13416,-13.64548 18.1041,-13.67484 z"
     fill="#e6bd63"
     id="path5" />
  <path
     d="m 16.719605,302.22696 c 1.769239,-0.003 1.769239,-0.003 3.574219,-0.006 1.22332,0.0239 2.446641,0.0477 3.707031,0.0723 1.223321,-0.0109 2.446641,-0.0219 3.707031,-0.0332 10.235611,0.0839 10.235611,0.0839 14.792969,4.5957 1.032156,3.09647 1.135716,5.25007 1.1539,8.49694 0.0086,1.14266 0.0172,2.28533 0.02606,3.46263 0.0043,1.25463 0.0085,2.50926 0.01291,3.80191 0.0079,1.33384 0.01617,2.66767 0.02478,4.00151 0.02619,4.37976 0.04152,8.75954 0.05579,13.13936 0.0054,1.50776 0.01074,3.01552 0.01613,4.52328 0.02162,6.27003 0.04036,12.54006 0.05162,18.81011 0.01625,8.98795 0.04947,17.97547 0.106401,26.96326 0.03866,6.3194 0.05823,12.63867 0.06352,18.95818 0.0037,3.77518 0.01571,7.5499 0.0481,11.32496 0.03002,3.55012 0.03641,7.0995 0.02462,10.64972 -3.27e-4,1.92442 0.02417,3.8488 0.04938,5.77305 -0.0083,1.14549 -0.01664,2.29098 -0.02521,3.47118 0.0033,0.99533 0.0066,1.99065 0.01003,3.01614 -0.857523,3.6183 -2.534495,4.65921 -5.618032,6.60778 -3.16626,0.51757 -3.16626,0.51757 -6.691406,0.53125 -1.274239,0.005 -2.548477,0.0103 -3.861328,0.0156 -0.658308,-0.008 -1.316616,-0.0168 -1.994873,-0.0254 -2.013346,-0.0215 -4.02314,-1.5e-4 -6.036377,0.0254 -1.272949,-0.005 -2.545899,-0.0103 -3.857422,-0.0156 -1.743256,-0.007 -1.743256,-0.007 -3.521729,-0.0137 -3.7396575,-0.63735 -4.7045852,-1.57678 -7.0368648,-4.51757 -0.506158,-2.63343 -0.506158,-2.63343 -0.514664,-5.68639 -0.01272,-1.15943 -0.02545,-2.31885 -0.03856,-3.51341 0.0065,-1.26817 0.01305,-2.53633 0.01978,-3.84293 -0.0071,-1.35207 -0.0158,-2.70414 -0.02611,-4.0562 -0.02251,-3.66953 -0.01955,-7.33863 -0.01068,-11.00821 0.0051,-3.06417 -0.0022,-6.12825 -0.0095,-9.19241 -0.017,-7.22925 -0.01343,-14.45828 0.0033,-21.68752 0.01692,-7.45625 0.0011,-14.91193 -0.03122,-22.36812 -0.0267,-6.40355 -0.03397,-12.80691 -0.02548,-19.21051 0.0049,-3.82376 0.0027,-7.64717 -0.01779,-11.47088 -0.01836,-3.59618 -0.0124,-7.19153 0.0122,-10.78766 0.0074,-1.94682 -0.0098,-3.89369 -0.02782,-5.84044 0.103617,-9.51706 0.103617,-9.51706 3.0205532,-12.61914 3.1967096,-2.07336 5.0698616,-2.34764 8.8647416,-2.34507 z"
     fill="#83bb69"
     id="path6" />
  <path
     d="m 34.938355,242.41837 c 5.618029,3.34943 9.571916,8.22255 11.5625,14.4375 0.906925,7.81865 0.683041,14.95523 -3.304687,21.87109 -4.356653,5.47091 -10.050996,8.55855 -16.921875,9.40234 -6.886378,0.29161 -12.206776,-1.10562 -17.7734378,-5.27343 -6.062356,-7.02152 -7.48201,-13.17678 -7.40625,-22.34375 0.710177,-6.3916 3.537201,-11.04142 8.257813,-15.34375 7.1326778,-5.34192 17.3535388,-6.4833 25.5859368,-2.75 z"
     fill="#77ba6d"
     id="path7" />
</svg>
